<svg width="29" height="29" viewBox="0 0 29 29" fill="none" xmlns="http://www.w3.org/2000/svg">
<path d="M27.3339 25.56V21.56C27.3501 20.9061 27.1254 20.2691 26.7026 19.77C26.2798 19.271 25.6883 18.9447 25.0406 18.8534C23.7605 18.6845 22.5036 18.3714 21.2939 17.92C20.8167 17.7406 20.298 17.7018 19.7994 17.8082C19.3008 17.9145 18.8431 18.1615 18.4806 18.52L16.7872 20.2134C13.4492 18.3153 10.6853 15.5514 8.78723 12.2134L10.4806 10.52C10.839 10.1575 11.0861 9.69982 11.1924 9.2012C11.2988 8.70258 11.26 8.18393 11.0806 7.70669C10.6292 6.497 10.3161 5.24012 10.1472 3.96003C10.0567 3.31929 9.7362 2.73334 9.24558 2.3114C8.75495 1.88947 8.12764 1.66033 7.48056 1.66669H3.48056C3.11035 1.66704 2.74426 1.74447 2.40562 1.89406C2.06697 2.04364 1.76318 2.2621 1.51358 2.53552C1.26399 2.80895 1.07406 3.13135 0.955896 3.48219C0.837728 3.83304 0.793909 4.20465 0.827229 4.57336C1.26489 8.69469 2.6672 12.655 4.92056 16.1334C6.96768 19.3549 9.699 22.0862 12.9206 24.1334C16.3832 26.3789 20.3243 27.7809 24.4272 28.2267C24.7971 28.2601 25.1698 28.2159 25.5216 28.097C25.8733 27.978 26.1964 27.7869 26.47 27.5358C26.7436 27.2848 26.9618 26.9794 27.1106 26.6392C27.2593 26.2989 27.3354 25.9314 27.3339 25.56Z" stroke="black" stroke-width="1.5" stroke-linecap="round" stroke-linejoin="round"/>
</svg>
